# xmcd
#
# Track frame offsets:
#	150
#	12683
#	25209
#	36981
#	49926
#	61829
#	89369
#	98941
#	111126
#	123259
#	135430
#	147755
#	160553
#	172834
#	185061
#	197996
#	220495
#	233349
#	246542
#	257308
#	268500
#	297930
#	310170
#	321602
#
# Disc length: 4428 seconds
#
# Revision: 0
# Processed by: cddbd v1.5.2PL0 Copyright (c) Steve Scherf et al.
# Submitted via: audiograbber 1.83.01
#
DISCID=5d114a18
DTITLE=Country Accordion - Golden Country Accordion
DYEAR=1900
DGENRE=
TTITLE0=Mountain Dew
TTITLE1=Hey Good Lookin'
TTITLE2=Cold, Cold Heart
TTITLE3=San Antonio Rose
TTITLE4=In The Jailhouse Now
TTITLE5=Medley 1
TTITLE6=Amazing Grace
TTITLE7=If You've Got The Money
TTITLE8=I Fall To Pieces
TTITLE9=El Paso
TTITLE10=Once A Day
TTITLE11=My Shoes Keep Walking Back To You
TTITLE12=I Don't Hurt Anymore
TTITLE13=Don't Let The Stars Get In Your Eyes
TTITLE14=Okie From Muskogee
TTITLE15=Medley 2
TTITLE16=Take These Chains From My Heart
TTITLE17=Jole Blon
TTITLE18=Daddy Sang Bass
TTITLE19=Crazy Arms
TTITLE20=Medley 3
TTITLE21=Wings Of A Dove
TTITLE22=Wolverton Mountain
TTITLE23=I've Got A Tiger By The Tail
EXTD=
EXTT0=
EXTT1=
EXTT2=
EXTT3=
EXTT4=
EXTT5=
EXTT6=
EXTT7=
EXTT8=
EXTT9=
EXTT10=
EXTT11=
EXTT12=
EXTT13=
EXTT14=
EXTT15=
EXTT16=
EXTT17=
EXTT18=
EXTT19=
EXTT20=
EXTT21=
EXTT22=
EXTT23=
PLAYORDER=
